<?xml version="1.0" encoding="UTF-8" standalone="no"?>
<!DOCTYPE svg PUBLIC "-//W3C//DTD SVG 1.1//EN"
 "http://www.w3.org/Graphics/SVG/1.1/DTD/svg11.dtd">
<!-- Generated by graphviz version 13.1.2 (20250808.2320)
 -->
<!-- Title: G Pages: 1 -->
<svg width="938pt" height="100pt"
 viewBox="0.00 0.00 938.00 100.00" xmlns="http://www.w3.org/2000/svg" xmlns:xlink="http://www.w3.org/1999/xlink">
<g id="graph0" class="graph" transform="scale(1 1) rotate(0) translate(4 96)">
<title>G</title>
<polygon fill="white" stroke="none" points="-4,4 -4,-96 933.5,-96 933.5,4 -4,4"/>
<!-- n94794958430128 -->
<g id="node1" class="node">
<title>n94794958430128</title>
<polygon fill="none" stroke="black" points="688,-31.5 688,-67.5 929.5,-67.5 929.5,-31.5 688,-31.5"/>
<text xml:space="preserve" text-anchor="middle" x="699.75" y="-45.2" font-family="Helvetica,sans-Serif" font-size="14.00">c</text>
<polyline fill="none" stroke="black" points="711.5,-32.25 711.5,-67.5"/>
<text xml:space="preserve" text-anchor="middle" x="765.62" y="-45.2" font-family="Helvetica,sans-Serif" font-size="14.00">data=8.0000</text>
<polyline fill="none" stroke="black" points="819.75,-32.25 819.75,-67.5"/>
<text xml:space="preserve" text-anchor="middle" x="874.62" y="-45.2" font-family="Helvetica,sans-Serif" font-size="14.00">grad=1.0000</text>
</g>
<!-- op_94794958430128 -->
<g id="node2" class="node">
<title>op_94794958430128</title>
<ellipse fill="lightyellow" stroke="black" cx="625" cy="-49.5" rx="27" ry="18"/>
<text xml:space="preserve" text-anchor="middle" x="625" y="-44.83" font-family="Helvetica,sans-Serif" font-size="14.00">+</text>
</g>
<!-- op_94794958430128&#45;&gt;n94794958430128 -->
<g id="edge1" class="edge">
<title>op_94794958430128&#45;&gt;n94794958430128</title>
<path fill="none" stroke="black" d="M652.43,-49.5C659.49,-49.5 667.62,-49.5 676.38,-49.5"/>
<polygon fill="black" stroke="black" points="676.27,-53 686.27,-49.5 676.27,-46 676.27,-53"/>
</g>
<!-- n94794958429952 -->
<g id="node3" class="node">
<title>n94794958429952</title>
<polygon fill="none" stroke="black" points="344,-8.5 344,-44.5 562,-44.5 562,-8.5 344,-8.5"/>
<text xml:space="preserve" text-anchor="middle" x="398.12" y="-22.2" font-family="Helvetica,sans-Serif" font-size="14.00">data=6.0000</text>
<polyline fill="none" stroke="black" points="452.25,-9.25 452.25,-44.5"/>
<text xml:space="preserve" text-anchor="middle" x="507.12" y="-22.2" font-family="Helvetica,sans-Serif" font-size="14.00">grad=1.0000</text>
</g>
<!-- n94794958429952&#45;&gt;op_94794958430128 -->
<g id="edge2" class="edge">
<title>n94794958429952&#45;&gt;op_94794958430128</title>
<path fill="none" stroke="black" d="M562.15,-41.13C570.91,-42.32 579.32,-43.46 586.97,-44.49"/>
<polygon fill="black" stroke="black" points="586.4,-47.95 596.78,-45.82 587.34,-41.01 586.4,-47.95"/>
</g>
<!-- op_94794958429952 -->
<g id="node4" class="node">
<title>op_94794958429952</title>
<ellipse fill="lightyellow" stroke="black" cx="281" cy="-26.5" rx="27" ry="18"/>
<text xml:space="preserve" text-anchor="middle" x="281" y="-21.82" font-family="Helvetica,sans-Serif" font-size="14.00">*</text>
</g>
<!-- op_94794958429952&#45;&gt;n94794958429952 -->
<g id="edge4" class="edge">
<title>op_94794958429952&#45;&gt;n94794958429952</title>
<path fill="none" stroke="black" d="M308.19,-26.5C315.33,-26.5 323.55,-26.5 332.38,-26.5"/>
<polygon fill="black" stroke="black" points="332.32,-30 342.32,-26.5 332.32,-23 332.32,-30"/>
</g>
<!-- n94794958429664 -->
<g id="node5" class="node">
<title>n94794958429664</title>
<polygon fill="none" stroke="black" points="0,-55.5 0,-91.5 218,-91.5 218,-55.5 0,-55.5"/>
<text xml:space="preserve" text-anchor="middle" x="54.12" y="-69.2" font-family="Helvetica,sans-Serif" font-size="14.00">data=2.0000</text>
<polyline fill="none" stroke="black" points="108.25,-56.25 108.25,-91.5"/>
<text xml:space="preserve" text-anchor="middle" x="163.12" y="-69.2" font-family="Helvetica,sans-Serif" font-size="14.00">grad=4.0000</text>
</g>
<!-- n94794958429664&#45;&gt;op_94794958430128 -->
<g id="edge3" class="edge">
<title>n94794958429664&#45;&gt;op_94794958430128</title>
<path fill="none" stroke="black" d="M218.28,-70.12C309.89,-66.98 444.6,-61.7 562,-54.5 569.89,-54.02 578.34,-53.4 586.39,-52.77"/>
<polygon fill="black" stroke="black" points="586.58,-56.26 596.26,-51.96 586.01,-49.29 586.58,-56.26"/>
</g>
<!-- n94794958429664&#45;&gt;op_94794958429952 -->
<g id="edge5" class="edge">
<title>n94794958429664&#45;&gt;op_94794958429952</title>
<path fill="none" stroke="black" d="M186.58,-55.03C197.16,-52.28 207.87,-49.4 218,-46.5 226.95,-43.94 236.54,-40.96 245.45,-38.1"/>
<polygon fill="black" stroke="black" points="246.41,-41.47 254.83,-35.04 244.24,-34.81 246.41,-41.47"/>
</g>
<!-- n94794958429776 -->
<g id="node6" class="node">
<title>n94794958429776</title>
<polygon fill="none" stroke="black" points="0,-0.5 0,-36.5 218,-36.5 218,-0.5 0,-0.5"/>
<text xml:space="preserve" text-anchor="middle" x="54.12" y="-14.2" font-family="Helvetica,sans-Serif" font-size="14.00">data=3.0000</text>
<polyline fill="none" stroke="black" points="108.25,-1.25 108.25,-36.5"/>
<text xml:space="preserve" text-anchor="middle" x="163.12" y="-14.2" font-family="Helvetica,sans-Serif" font-size="14.00">grad=2.0000</text>
</g>
<!-- n94794958429776&#45;&gt;op_94794958429952 -->
<g id="edge6" class="edge">
<title>n94794958429776&#45;&gt;op_94794958429952</title>
<path fill="none" stroke="black" d="M218.15,-23.59C226.64,-23.99 234.8,-24.37 242.25,-24.72"/>
<polygon fill="black" stroke="black" points="242.01,-28.22 252.16,-25.19 242.34,-21.22 242.01,-28.22"/>
</g>
</g>
</svg>
